# xmcd
#
# Track frame offsets: 
#        150
#        11520
#        20315
#        33693
#        42850
#        54469
#        65482
#        76270
#        85132
#        96472
#        108303
#        118340
#
# Disc length: 1714 seconds
#
# Revision: 0
# Processed by: cddbd v1.5.1PL0 Copyright (c) Steve Scherf et al.
# Submitted via: ExactAudioCopy v0.95b3
#
DISCID=9706b00c
DTITLE=Patsy Cline - Her Original Four Star Hits Vol. 2
DYEAR=1900
DGENRE=Country
TTITLE0=Just Out of Reach
TTITLE1=Ain't No Wheels On This Ship
TTITLE2=If I Could See The World (Through the Eyes of a Child)
TTITLE3=I Love You Honey
TTITLE4=Never No More
TTITLE5=There He Goes
TTITLE6=Got a Lot of Rhythm In My Soul
TTITLE7=Try Again
TTITLE8=Don't Ever Leave Me
TTITLE9=If I Could Only Stay Asleep
TTITLE10=Pick Me Up On Your Way Down
TTITLE11=Turn the Cards Slowly
EXTD=
EXTT0=
EXTT1=
EXTT2=
EXTT3=
EXTT4=
EXTT5=
EXTT6=
EXTT7=
EXTT8=
EXTT9=
EXTT10=
EXTT11=
PLAYORDER=
